<?xml version="1.0" encoding="UTF-8"?>
<svg id="Layer_1" xmlns="http://www.w3.org/2000/svg" width="175" height="70" version="1.1" xmlns:xlink="http://www.w3.org/1999/xlink" viewBox="0 0 174.98 70">
  <!-- Generator: Adobe Illustrator 29.0.1, SVG Export Plug-In . SVG Version: 2.1.0 Build 192)  -->
  <defs>
    <pattern id="Jive" x="0" y="0" width="108.34" height="109.64" patternTransform="translate(-215.15 -167.42)" patternUnits="userSpaceOnUse" viewBox="0 0 108.34 109.64">
      <g>
        <rect x="0" width="108.34" height="109.64" fill="none"/>
        <g>
          <path d="M87.47,144.34c.02-.12.12-.21.25-.21,12.91-.13,24.75-3.27,33.97-11.51-8.03,5.56-22.94,7.51-31.53,3.62-.11-.05-.17-.17-.14-.29.03-.12.13-.2.25-.2,10.68.29,19.28-3.01,25.98-8.96-6.87-.42-12.57-4.74-12.56-9.84,0-.12.08-.22.2-.25.12-.03.23.04.28.14,1.12,2.49,4.75,3.78,8.58,2.88,4.18-.98,7-4.19,6.3-7.16-.47-2.01-2.44-3.4-4.95-3.79-.13-.02-.22-.13-.22-.26,0-.13.1-.23.23-.25,1.07-.1,2.18-.11,3.32,0,6.49.62,11.51,4.6,11.95,9.18,4.71-.55,8.88-3.16,10.38-6.77.04-.11.16-.17.28-.15.12.02.2.11.21.23.38,4.75-1.26,7.84-4.97,10.85,5.38-2.06,11.45-2.16,17.26.54.11.05.16.16.14.28-.02.12-.12.2-.24.2-4.88.19-8.42,1.76-11.73,5.07,18.25-5.13,33.09,6.2,27.95,23.05-.04.12-.15.19-.27.18-.12-.01-.22-.11-.23-.23-.92-9.71-7.7-16.12-17.86-17.08,5.39,2.06,11,6.98,11.56,15.53,0,.12-.07.23-.19.26-.12.03-.24-.03-.29-.14-2.8-6.15-8.3-9.27-14.16-9.81,6.33,2.58,10.4,8.6,11.57,16.42.02.12-.05.24-.17.28-.12.04-.25-.02-.3-.12-3.87-7.58-12.16-12.79-22.45-8.81-10.62,4.11-15.27,16.39-16.3,25.04-.02.12-.12.21-.24.22s-.23-.07-.26-.2c-3.72-15.69,3.58-31.95,16.64-38.84-7.1,2-13.44,6.26-17.03,13.35-8.29,1.02-14,3.86-16.86,9.24-.06.11-.18.16-.29.12-.12-.03-.19-.14-.18-.27.18-2.11.94-6.33,4.07-8.27-6.96.01-12.51-.89-17.8-3.01-.11-.05-.18-.16-.15-.28ZM116.96,197.81c-.1-.07-.23-.05-.32.03-.09.08-.1.21-.04.31,1.62,2.8.14,6.81-3.05,6.81-5.72,0-8.47-10.77-7.6-20.59,2.16,5.76,4.03,8.05,7.35,10.79.09.08.23.08.32,0,.09-.08.12-.21.06-.32-4.86-9.08-5.9-16.07-5.9-24.09,1.46,5.96,3.2,9.32,8.13,14.38.09.09.22.1.32.03.1-.07.14-.2.09-.32-5.3-11.59-4.89-24.45-.95-34.26.04-.1.01-.21-.06-.28-.08-.07-.19-.09-.29-.04-5.21,2.55-8.26,4.23-12.75,10.39,1.36,7.4.23,11.05-3.17,17.2,3.94-9.92,1.84-23.89-8.19-29.59-.11-.06-.25-.03-.32.06-.08.1-.07.24.02.33,3.78,3.96,6.53,10.63,4.16,17.93,1.53-10.39-7.6-19.12-17.78-19.12-9.6,0-16.15,7.51-15.61,14.94.54,7.37,5.44,10.97,9.67,12.5.11.04.24,0,.3-.1.06-.1.05-.23-.03-.32-5.61-5.69-6.38-16.49,3.58-19.76-5.86,5.06-3.69,16.83,5.69,17.72.12.01.23-.06.26-.17s0-.23-.1-.3c-2.01-1.28-3.68-3.77-3.68-6.57,0-4.67,3.42-6.51,5.68-6.51,3.42,0,6.26,3.26,6.26,8.18,0,5.84-5.26,10.68-12.02,11.44-6.63.73-12.78-2.15-15.75-6.46-.07-.1-.2-.14-.31-.09s-.17.18-.14.29c3.02,11.7,16.8,16.88,26.89,9.51-6.61,7.5-17.01,7.61-25.72-.09-.09-.08-.23-.08-.32,0-.1.07-.13.21-.07.31,2.67,5.41,9.25,11.82,18.61,10.88,8.56-.86,13.52-9.01,14.52-15.69.56,8.52-1.39,14.54-8.75,20.15-.1.07-.13.21-.07.32.05.11.18.16.3.13,6.79-1.96,12.23-5.43,15.05-12.54,0,6.16-2.14,12.37-7.53,16.51-.1.07-.13.21-.07.31s.18.16.3.13c3.45-.98,6.17-2.49,8.14-5.19,1.31,11.1,6.52,17.69,12.52,17.69,4.12,0,7.2-3.03,7.2-7.87,0-2.83-1.49-6.8-4.81-9.02ZM216.19,106.19c-3.16-3.9-9.54-5.39-16.43-3.99.51-4.3-.33-8.79-1.61-11.48-.05-.11-.17-.17-.29-.14-.12.03-.2.14-.19.26.37,8.77-4.62,15.84-13.45,18.91,6.91-4.76,8.93-14.19,5.64-19.07-.07-.1-.2-.14-.31-.09-.11.04-.18.16-.15.28.37,2.06-.61,4.68-2.71,6.73-2.91,2.81-6.85,3.45-8.81,1.43-1.96-2.03-1.2-5.95,1.71-8.76,1.06-1.03,2.26-1.76,3.45-2.18.11-.04.18-.15.17-.27-.01-.12-.11-.21-.23-.22-6.39-.55-10.77,3.25-13.52,7.88-2.79,4.71-7.57,8.41-13.21,7.67-.12-.02-.23.05-.27.17-.04.11,0,.24.11.3,2.8,1.68,5.87,2.38,9.86,1.05-5.79,4.91-14.05,7.74-21.84,5.23-.11-.04-.23,0-.29.1-.06.1-.05.22.03.31,5.91,6.56,17.69,6.7,25.11,1.37-3.04,4.32-7.07,7.48-14.29,8.48-.12.02-.2.11-.22.22-.01.12.05.23.16.27,8.29,3.08,16.6-.04,23.45-8.21-2.99,6.38-7.91,11.48-14.77,14.01-.12.04-.18.16-.16.28.02.12.12.21.24.21,3.94.08,7.49-.86,12.27-3.57-3.51,5.69-2.74,15.64,2.37,22.26.07.09.2.12.3.08.11-.05.17-.16.15-.27-1.18-7.2,1.3-15.33,5.61-19.64-2.15,7.63,0,14.58,5.9,19.64.07.06.17.08.26.04.09-.03.15-.11.16-.2,1.23-9.42,11.77-18.97,20.6-19.78.12-.01.22-.11.23-.24s-.07-.24-.2-.26c-4.28-.97-8.69-.49-12.39,1.03,2.66-2.93,5.94-5.11,9.56-6.25.12-.04.19-.15.18-.27-.01-.12-.11-.21-.23-.22-4.51-.31-8.92,1.01-12.73,3.54,4.36-6.62,10.98-11.54,19.43-13.51.12-.03.2-.14.2-.26,0-.12-.1-.22-.23-.24-11.92-1.3-21.75,3.32-28.22,11.92,1.65-4.9,6.37-9.76,12.95-12.62,5.85-2.54,11.85-2.95,16.42-1.51.11.03.22,0,.29-.1.06-.09.06-.21-.01-.3ZM163.28,181.76c4.81-10.49,4.46-18.69.59-29.05-.04-.12-.17-.18-.29-.16-.12.03-.21.14-.2.26.62,12.62-2.83,21.65-10.3,27.81,8.25-9.85,4.35-29.56-8.82-29.56-9.59,0-17.52,7.98-19.45,17.52-.03.12.04.24.16.29.12.04.25,0,.31-.11,2.84-4.76,7.41-7.85,12.46-7.85,8.13,0,10.54,6.47,10.54,11,0,6.19-4.93,11.34-8.71,11.34-3.44,0-5.04-2.82-5.04-4.93,0-3.9,3-7.17,6.38-8.16.12-.04.2-.15.18-.28-.02-.12-.12-.22-.25-.22-4.11-.03-7.58,1.86-9.63,5.57-.27-2.88-.27-4.69.64-7.72.04-.12-.02-.24-.12-.3-.11-.06-.24-.03-.32.07-7.36,9.39-3.84,25.62,1.98,32.36-5.53-3.98-10.42-12.63-10.34-24.39,0-.12-.08-.23-.21-.25-.12-.03-.24.04-.28.15-4.11,10.25-1.93,29.25,9.28,39.85-2.88.4-5.87.35-9.12-.69-.12-.04-.24.01-.3.12-.06.11-.04.24.06.32,4.09,3.46,9.81,4.54,15.27,4.54-4.7-5.5-3.14-16.55,4.36-16.55,5.35,0,7.78,8.3,3.65,12.78-.08.09-.09.21-.03.31.06.1.19.14.3.1,4.78-1.65,9.95-5.79,9.95-11.02s-4.81-9.39-11.8-9.05c8.82-2.51,18.05.27,22.88,6.25.07.09.21.12.31.07.11-.05.16-.18.13-.29-2.79-10.72-11.97-15.2-23.44-13.71,9.28-3.76,23.25-.48,29.42,7.31.07.09.2.12.31.07.11-.05.16-.17.14-.28-1.37-6.62-4.86-11.56-10.62-13.52Z" fill="#00427e"/>
          <path d="M189.67,162.47c-.02.12-.12.21-.25.21-12.91.14-24.75,3.27-33.97,11.52,8.03-5.56,22.94-7.51,31.53-3.62.11.05.17.17.14.29-.03.12-.13.2-.25.2-10.68-.29-19.28,3.01-25.98,8.96,6.87.42,12.57,4.74,12.56,9.85,0,.12-.08.22-.2.25-.12.02-.23-.04-.28-.14-1.12-2.49-4.75-3.78-8.58-2.88-4.18.98-7,4.19-6.3,7.17.47,2.01,2.44,3.4,4.95,3.79.13.02.22.13.22.26,0,.13-.1.23-.23.25-1.07.1-2.18.11-3.32,0-6.49-.62-11.51-4.59-11.95-9.18-4.71.55-8.88,3.16-10.38,6.77-.04.11-.16.17-.28.15-.12-.02-.2-.11-.21-.23-.38-4.75,1.26-7.84,4.97-10.85-5.38,2.06-11.45,2.16-17.26-.54-.11-.05-.16-.17-.14-.28.02-.12.12-.2.24-.2,4.88-.19,8.42-1.76,11.73-5.07-18.26,5.13-33.09-6.2-27.96-23.05.04-.12.15-.19.27-.18s.22.11.23.23c.92,9.71,7.7,16.12,17.86,17.08-5.39-2.06-11-6.97-11.56-15.53,0-.12.07-.23.19-.26.12-.03.24.03.29.14,2.8,6.15,8.3,9.26,14.16,9.81-6.33-2.58-10.4-8.6-11.57-16.42-.02-.12.05-.24.17-.28.12-.04.25.02.3.13,3.87,7.58,12.16,12.79,22.45,8.81,10.62-4.11,15.27-16.38,16.3-25.04.02-.12.12-.22.24-.22.12,0,.23.08.26.2,3.72,15.69-3.58,31.95-16.64,38.84,7.1-2,13.44-6.26,17.03-13.35,8.29-1.02,14-3.86,16.86-9.24.06-.11.18-.16.29-.12.12.04.19.15.18.27-.18,2.11-.94,6.33-4.07,8.27,6.96-.01,12.51.89,17.8,3.01.11.04.18.16.15.28ZM160.18,109c.1.06.23.05.32-.03.09-.08.1-.21.04-.31-1.62-2.8-.14-6.81,3.05-6.81,5.72,0,8.47,10.77,7.6,20.59-2.16-5.75-4.03-8.05-7.35-10.79-.09-.08-.23-.08-.32,0-.09.08-.12.21-.06.32,4.86,9.08,5.9,16.06,5.9,24.08-1.46-5.96-3.2-9.32-8.13-14.38-.09-.09-.22-.1-.32-.03-.1.07-.14.2-.09.31,5.3,11.59,4.89,24.45.95,34.26-.04.1-.01.21.06.28.08.07.19.09.29.04,5.21-2.55,8.26-4.23,12.75-10.39-1.36-7.4-.23-11.05,3.17-17.19-3.94,9.92-1.84,23.89,8.19,29.59.11.06.25.04.32-.06.08-.1.07-.24-.02-.33-3.78-3.96-6.53-10.63-4.16-17.93-1.53,10.39,7.6,19.11,17.78,19.11,9.6,0,16.15-7.51,15.61-14.94-.54-7.37-5.44-10.97-9.67-12.5-.11-.04-.24,0-.3.1-.06.1-.05.23.03.31,5.61,5.69,6.38,16.49-3.58,19.76,5.86-5.06,3.69-16.83-5.69-17.72-.12,0-.23.06-.26.17-.04.11,0,.23.1.3,2.01,1.28,3.68,3.77,3.68,6.57,0,4.67-3.42,6.51-5.68,6.51-3.42,0-6.26-3.26-6.26-8.18,0-5.84,5.26-10.68,12.02-11.43,6.63-.74,12.78,2.15,15.75,6.46.07.1.2.14.31.09.11-.05.17-.17.14-.29-3.02-11.7-16.8-16.88-26.89-9.51,6.61-7.5,17.01-7.61,25.72.09.09.08.22.09.32.01.1-.07.13-.21.07-.31-2.67-5.41-9.25-11.82-18.61-10.88-8.56.86-13.52,9.02-14.52,15.69-.56-8.52,1.39-14.54,8.75-20.14.1-.07.13-.21.07-.32-.05-.11-.18-.16-.3-.13-6.79,1.96-12.23,5.42-15.05,12.54,0-6.16,2.14-12.37,7.53-16.51.1-.07.13-.21.07-.32-.05-.11-.18-.16-.29-.13-3.45.98-6.17,2.49-8.14,5.18-1.31-11.1-6.52-17.69-12.53-17.69-4.12,0-7.21,3.03-7.21,7.87,0,2.83,1.49,6.8,4.81,9.02ZM60.95,200.62c3.16,3.9,9.54,5.39,16.43,3.99-.51,4.3.33,8.79,1.61,11.49.05.11.17.17.29.14.12-.03.2-.14.19-.26-.37-8.77,4.62-15.84,13.45-18.91-6.91,4.76-8.93,14.19-5.64,19.06.07.1.2.14.31.09.11-.04.18-.16.15-.28-.37-2.06.61-4.68,2.71-6.72,2.91-2.81,6.85-3.45,8.81-1.43,1.96,2.03,1.2,5.95-1.71,8.76-1.06,1.03-2.26,1.76-3.45,2.19-.11.04-.18.15-.17.27.01.12.11.21.23.22,6.39.55,10.77-3.25,13.52-7.88,2.79-4.71,7.57-8.41,13.21-7.67.12.02.23-.05.27-.17.04-.11,0-.24-.11-.3-2.8-1.68-5.87-2.38-9.86-1.05,5.8-4.91,14.05-7.74,21.84-5.23.11.04.23,0,.29-.1s.05-.22-.03-.31c-5.91-6.56-17.69-6.7-25.11-1.37,3.04-4.32,7.07-7.49,14.29-8.48.12-.02.21-.11.22-.22.01-.12-.05-.22-.16-.27-8.29-3.08-16.6.04-23.45,8.22,2.99-6.38,7.91-11.49,14.77-14.01.12-.04.18-.16.16-.28-.02-.12-.12-.21-.24-.21-3.94-.08-7.49.86-12.26,3.57,3.51-5.69,2.74-15.64-2.37-22.26-.07-.09-.2-.12-.3-.08-.11.05-.17.16-.15.28,1.18,7.2-1.3,15.33-5.61,19.64,2.15-7.63,0-14.58-5.9-19.64-.07-.06-.17-.08-.26-.04-.09.03-.15.11-.16.2-1.23,9.42-11.77,18.97-20.6,19.78-.12.01-.22.11-.23.24,0,.12.07.24.2.26,4.28.97,8.69.49,12.39-1.03-2.66,2.93-5.94,5.11-9.55,6.24-.12.04-.19.15-.18.27.01.12.11.22.23.22,4.51.31,8.92-1.01,12.73-3.54-4.36,6.62-10.98,11.54-19.43,13.51-.12.03-.2.14-.2.26,0,.12.1.22.23.24,11.92,1.3,21.75-3.32,28.22-11.92-1.65,4.9-6.37,9.76-12.95,12.62-5.85,2.55-11.85,2.95-16.42,1.51-.11-.03-.22,0-.29.1-.06.09-.06.22.01.3ZM113.86,125.05c-4.81,10.49-4.46,18.69-.59,29.05.04.12.17.19.29.16.12-.03.21-.14.2-.26-.62-12.62,2.83-21.65,10.3-27.81-8.25,9.85-4.35,29.56,8.82,29.56,9.59,0,17.52-7.98,19.46-17.53.03-.12-.04-.24-.16-.29-.12-.04-.25,0-.31.11-2.84,4.76-7.41,7.85-12.46,7.85-8.13,0-10.54-6.47-10.54-11,0-6.19,4.93-11.34,8.71-11.34,3.44,0,5.04,2.82,5.04,4.93,0,3.9-3,7.17-6.37,8.16-.12.04-.2.15-.18.28.02.12.12.22.25.22,4.11.03,7.58-1.85,9.63-5.57.27,2.88.27,4.69-.64,7.72-.04.12.02.24.12.3.11.05.24.03.32-.07,7.36-9.39,3.84-25.62-1.98-32.36,5.53,3.98,10.42,12.63,10.34,24.39,0,.12.08.23.21.25.12.02.24-.04.28-.15,4.11-10.25,1.93-29.25-9.28-39.85,2.88-.4,5.87-.35,9.12.69.12.04.24-.01.3-.12.06-.11.04-.24-.06-.32-4.09-3.46-9.81-4.54-15.27-4.54,4.7,5.5,3.14,16.55-4.35,16.55-5.35,0-7.78-8.3-3.65-12.78.08-.09.09-.21.03-.31-.06-.1-.19-.14-.3-.1-4.78,1.66-9.95,5.79-9.95,11.02s4.81,9.39,11.8,9.05c-8.82,2.5-18.05-.27-22.88-6.25-.07-.09-.2-.12-.31-.07-.11.05-.16.17-.13.29,2.79,10.71,11.97,15.2,23.44,13.71-9.28,3.76-23.25.48-29.42-7.31-.07-.09-.2-.12-.31-.07-.11.05-.16.17-.14.28,1.37,6.62,4.86,11.56,10.62,13.52Z" fill="#9ddcf9" opacity=".4"/>
        </g>
        <g>
          <path d="M-20.86,144.34c.02-.12.12-.21.25-.21,12.91-.13,24.75-3.27,33.97-11.51-8.03,5.56-22.94,7.51-31.53,3.62-.11-.05-.17-.17-.14-.29.03-.12.13-.2.25-.2,10.68.29,19.28-3.01,25.98-8.96-6.87-.42-12.57-4.74-12.56-9.84,0-.12.08-.22.2-.25.12-.03.23.04.28.14,1.12,2.49,4.75,3.78,8.58,2.88,4.18-.98,7-4.19,6.3-7.16-.47-2.01-2.44-3.4-4.95-3.79-.13-.02-.22-.13-.22-.26,0-.13.1-.23.23-.25,1.07-.1,2.18-.11,3.32,0,6.49.62,11.51,4.6,11.95,9.18,4.71-.55,8.88-3.16,10.38-6.77.04-.11.16-.17.28-.15.12.02.2.11.21.23.38,4.75-1.26,7.84-4.97,10.85,5.38-2.06,11.45-2.16,17.26.54.11.05.16.16.14.28-.02.12-.12.2-.24.2-4.88.19-8.42,1.76-11.73,5.07,18.25-5.13,33.09,6.2,27.95,23.05-.04.12-.15.19-.27.18-.12-.01-.22-.11-.23-.23-.92-9.71-7.7-16.12-17.86-17.08,5.39,2.06,11,6.98,11.56,15.53,0,.12-.07.23-.19.26-.12.03-.24-.03-.29-.14-2.8-6.15-8.3-9.27-14.16-9.81,6.33,2.58,10.4,8.6,11.57,16.42.02.12-.05.24-.17.28-.12.04-.25-.02-.3-.12-3.87-7.58-12.16-12.79-22.45-8.81-10.62,4.11-15.27,16.39-16.3,25.04-.02.12-.12.21-.24.22-.12,0-.23-.07-.26-.2-3.72-15.69,3.58-31.95,16.64-38.84-7.1,2-13.44,6.26-17.03,13.35-8.29,1.02-14,3.86-16.86,9.24-.06.11-.18.16-.29.12-.12-.03-.19-.14-.18-.27.18-2.11.94-6.33,4.07-8.27-6.97.01-12.51-.89-17.8-3.01-.11-.05-.18-.16-.15-.28ZM8.62,197.81c-.1-.07-.23-.05-.32.03-.09.08-.1.21-.04.31,1.62,2.8.14,6.81-3.05,6.81-5.72,0-8.47-10.77-7.6-20.59,2.16,5.76,4.03,8.05,7.35,10.79.09.08.23.08.32,0,.09-.08.12-.21.06-.32-4.86-9.08-5.9-16.07-5.9-24.09,1.46,5.96,3.2,9.32,8.13,14.38.09.09.22.1.32.03.1-.07.14-.2.09-.32-5.3-11.59-4.89-24.45-.95-34.26.04-.1.01-.21-.06-.28-.08-.07-.19-.09-.29-.04-5.21,2.55-8.26,4.23-12.75,10.39,1.36,7.4.23,11.05-3.17,17.2,3.94-9.92,1.84-23.89-8.19-29.59-.11-.06-.25-.03-.32.06-.08.1-.07.24.02.33,3.78,3.96,6.53,10.63,4.16,17.93,1.53-10.39-7.6-19.12-17.78-19.12-9.6,0-16.15,7.51-15.61,14.94.54,7.37,5.44,10.97,9.67,12.5.11.04.24,0,.3-.1.06-.1.05-.23-.03-.32-5.61-5.69-6.38-16.49,3.58-19.76-5.86,5.06-3.69,16.83,5.69,17.72.12.01.23-.06.26-.17s0-.23-.1-.3c-2.01-1.28-3.68-3.77-3.68-6.57,0-4.67,3.42-6.51,5.68-6.51,3.42,0,6.26,3.26,6.26,8.18,0,5.84-5.26,10.68-12.02,11.44-6.63.73-12.78-2.15-15.75-6.46-.07-.1-.2-.14-.31-.09-.11.05-.17.18-.14.29,3.02,11.7,16.8,16.88,26.89,9.51-6.61,7.5-17.01,7.61-25.72-.09-.09-.08-.23-.08-.32,0-.1.07-.13.21-.07.31,2.67,5.41,9.25,11.82,18.61,10.88,8.56-.86,13.52-9.01,14.52-15.69.56,8.52-1.39,14.54-8.75,20.15-.1.07-.13.21-.07.32.05.11.18.16.3.13,6.79-1.96,12.23-5.43,15.05-12.54,0,6.16-2.14,12.37-7.53,16.51-.1.07-.13.21-.07.31s.18.16.3.13c3.45-.98,6.17-2.49,8.14-5.19,1.31,11.1,6.52,17.69,12.53,17.69,4.12,0,7.21-3.03,7.21-7.87,0-2.83-1.49-6.8-4.81-9.02ZM107.85,106.19c-3.16-3.9-9.54-5.39-16.43-3.99.51-4.3-.33-8.79-1.61-11.48-.05-.11-.17-.17-.29-.14-.12.03-.2.14-.19.26.37,8.77-4.62,15.84-13.45,18.91,6.91-4.76,8.93-14.19,5.64-19.07-.07-.1-.2-.14-.31-.09-.11.04-.18.16-.15.28.37,2.06-.61,4.68-2.71,6.73-2.91,2.81-6.85,3.45-8.81,1.43-1.96-2.03-1.2-5.95,1.71-8.76,1.06-1.03,2.26-1.76,3.45-2.18.11-.04.18-.15.17-.27-.01-.12-.11-.21-.23-.22-6.39-.55-10.77,3.25-13.52,7.88-2.79,4.71-7.57,8.41-13.21,7.67-.12-.02-.23.05-.27.17-.04.11,0,.24.11.3,2.8,1.68,5.87,2.38,9.86,1.05-5.79,4.91-14.05,7.74-21.84,5.23-.11-.04-.23,0-.29.1-.06.1-.05.22.03.31,5.91,6.56,17.69,6.7,25.11,1.37-3.04,4.32-7.07,7.48-14.29,8.48-.12.02-.2.11-.22.22-.01.12.05.23.16.27,8.29,3.08,16.6-.04,23.45-8.21-2.99,6.38-7.91,11.48-14.77,14.01-.12.04-.18.16-.16.28.02.12.12.21.24.21,3.94.08,7.49-.86,12.27-3.57-3.51,5.69-2.74,15.64,2.37,22.26.07.09.2.12.3.08.11-.05.17-.16.15-.27-1.18-7.2,1.3-15.33,5.61-19.64-2.15,7.63,0,14.58,5.9,19.64.07.06.17.08.26.04.09-.03.15-.11.16-.2,1.23-9.42,11.77-18.97,20.6-19.78.12-.01.22-.11.23-.24s-.07-.24-.2-.26c-4.28-.97-8.69-.49-12.39,1.03,2.66-2.93,5.94-5.11,9.55-6.25.12-.04.19-.15.18-.27-.01-.12-.11-.21-.23-.22-4.51-.31-8.92,1.01-12.73,3.54,4.36-6.62,10.98-11.54,19.43-13.51.12-.03.2-.14.2-.26,0-.12-.1-.22-.23-.24-11.92-1.3-21.75,3.32-28.22,11.92,1.65-4.9,6.37-9.76,12.95-12.62,5.85-2.54,11.85-2.95,16.42-1.51.11.03.22,0,.29-.1.06-.09.06-.21-.01-.3ZM54.94,181.76c4.81-10.49,4.46-18.69.59-29.05-.04-.12-.17-.18-.29-.16-.12.03-.21.14-.2.26.62,12.62-2.83,21.65-10.3,27.81,8.25-9.85,4.35-29.56-8.82-29.56-9.59,0-17.52,7.98-19.45,17.52-.03.12.04.24.16.29.12.04.25,0,.31-.11,2.84-4.76,7.41-7.85,12.46-7.85,8.13,0,10.54,6.47,10.54,11,0,6.19-4.93,11.34-8.71,11.34-3.44,0-5.04-2.82-5.04-4.93,0-3.9,3-7.17,6.38-8.16.12-.04.2-.15.18-.28-.02-.12-.12-.22-.25-.22-4.11-.03-7.58,1.86-9.63,5.57-.27-2.88-.27-4.69.64-7.72.04-.12-.02-.24-.12-.3-.11-.06-.24-.03-.32.07-7.36,9.39-3.84,25.62,1.98,32.36-5.53-3.98-10.42-12.63-10.34-24.39,0-.12-.08-.23-.2-.25-.12-.03-.24.04-.28.15-4.11,10.25-1.93,29.25,9.28,39.85-2.88.4-5.87.35-9.12-.69-.12-.04-.24.01-.3.12-.06.11-.04.24.06.32,4.09,3.46,9.81,4.54,15.27,4.54-4.7-5.5-3.14-16.55,4.36-16.55,5.35,0,7.78,8.3,3.65,12.78-.08.09-.09.21-.03.31.06.1.19.14.3.1,4.78-1.65,9.95-5.79,9.95-11.02s-4.81-9.39-11.8-9.05c8.82-2.51,18.05.27,22.88,6.25.07.09.21.12.31.07.11-.05.16-.18.13-.29-2.79-10.72-11.97-15.2-23.44-13.71,9.28-3.76,23.25-.48,29.42,7.31.07.09.2.12.31.07.11-.05.16-.17.14-.28-1.37-6.62-4.86-11.56-10.62-13.52Z" fill="#00427e"/>
          <path d="M81.33,162.47c-.02.12-.12.21-.25.21-12.91.14-24.75,3.27-33.97,11.52,8.03-5.56,22.94-7.51,31.53-3.62.11.05.17.17.14.29-.03.12-.13.2-.25.2-10.68-.29-19.28,3.01-25.98,8.96,6.87.42,12.57,4.74,12.56,9.85,0,.12-.08.22-.2.25-.12.02-.23-.04-.28-.14-1.12-2.49-4.75-3.78-8.58-2.88-4.18.98-7,4.19-6.3,7.17.47,2.01,2.44,3.4,4.95,3.79.13.02.22.13.22.26,0,.13-.1.23-.23.25-1.07.1-2.18.11-3.32,0-6.49-.62-11.51-4.59-11.95-9.18-4.71.55-8.88,3.16-10.38,6.77-.04.11-.16.17-.28.15-.12-.02-.2-.11-.21-.23-.38-4.75,1.26-7.84,4.97-10.85-5.38,2.06-11.45,2.16-17.26-.54-.11-.05-.16-.17-.14-.28.02-.12.12-.2.24-.2,4.88-.19,8.42-1.76,11.73-5.07-18.26,5.13-33.09-6.2-27.95-23.05.04-.12.15-.19.27-.18s.22.11.23.23c.92,9.71,7.7,16.12,17.86,17.08-5.39-2.06-11-6.97-11.56-15.53,0-.12.07-.23.19-.26.12-.03.24.03.29.14,2.8,6.15,8.3,9.26,14.16,9.81-6.33-2.58-10.4-8.6-11.57-16.42-.02-.12.05-.24.17-.28.12-.04.25.02.3.13,3.87,7.58,12.16,12.79,22.45,8.81,10.62-4.11,15.27-16.38,16.3-25.04.02-.12.12-.22.24-.22.12,0,.23.08.26.2,3.72,15.69-3.58,31.95-16.64,38.84,7.1-2,13.44-6.26,17.03-13.35,8.29-1.02,14-3.86,16.86-9.24.06-.11.18-.16.29-.12.12.04.19.15.18.27-.18,2.11-.94,6.33-4.07,8.27,6.96-.01,12.51.89,17.8,3.01.11.04.18.16.15.28ZM51.84,109c.1.06.23.05.32-.03.09-.08.1-.21.04-.31-1.62-2.8-.14-6.81,3.05-6.81,5.72,0,8.47,10.77,7.6,20.59-2.16-5.75-4.03-8.05-7.35-10.79-.09-.08-.23-.08-.32,0-.09.08-.12.21-.06.32,4.86,9.08,5.9,16.06,5.9,24.08-1.46-5.96-3.2-9.32-8.13-14.38-.09-.09-.22-.1-.32-.03-.1.07-.14.2-.09.31,5.3,11.59,4.89,24.45.95,34.26-.04.1-.01.21.06.28.08.07.19.09.29.04,5.21-2.55,8.26-4.23,12.75-10.39-1.36-7.4-.23-11.05,3.17-17.19-3.94,9.92-1.84,23.89,8.19,29.59.11.06.25.04.32-.06.08-.1.07-.24-.02-.33-3.78-3.96-6.53-10.63-4.16-17.93-1.53,10.39,7.6,19.11,17.78,19.11,9.6,0,16.15-7.51,15.61-14.94-.54-7.37-5.44-10.97-9.67-12.5-.11-.04-.24,0-.3.1-.06.1-.05.23.03.31,5.61,5.69,6.38,16.49-3.58,19.76,5.86-5.06,3.69-16.83-5.69-17.72-.12,0-.23.06-.26.17-.04.11,0,.23.1.3,2.01,1.28,3.68,3.77,3.68,6.57,0,4.67-3.42,6.51-5.68,6.51-3.42,0-6.26-3.26-6.26-8.18,0-5.84,5.26-10.68,12.02-11.43,6.63-.74,12.78,2.15,15.75,6.46.07.1.2.14.31.09.11-.05.17-.17.14-.29-3.02-11.7-16.8-16.88-26.89-9.51,6.61-7.5,17.01-7.61,25.72.09.09.08.22.09.32.01.1-.07.13-.21.07-.31-2.67-5.41-9.25-11.82-18.61-10.88-8.56.86-13.52,9.02-14.52,15.69-.56-8.52,1.39-14.54,8.75-20.14.1-.07.13-.21.07-.32s-.18-.16-.3-.13c-6.79,1.96-12.23,5.42-15.05,12.54,0-6.16,2.14-12.37,7.53-16.51.1-.07.13-.21.07-.32-.05-.11-.18-.16-.29-.13-3.45.98-6.17,2.49-8.14,5.18-1.31-11.1-6.52-17.69-12.53-17.69-4.12,0-7.21,3.03-7.21,7.87,0,2.83,1.49,6.8,4.81,9.02ZM-47.39,200.62c3.16,3.9,9.54,5.39,16.43,3.99-.51,4.3.33,8.79,1.61,11.49.05.11.17.17.29.14s.2-.14.19-.26c-.38-8.77,4.62-15.84,13.45-18.91-6.91,4.76-8.93,14.19-5.64,19.06.07.1.2.14.31.09.11-.04.18-.16.15-.28-.37-2.06.61-4.68,2.71-6.72,2.91-2.81,6.85-3.45,8.81-1.43,1.96,2.03,1.2,5.95-1.71,8.76-1.06,1.03-2.26,1.76-3.45,2.19-.11.04-.18.15-.17.27.01.12.11.21.23.22,6.39.55,10.77-3.25,13.52-7.88,2.8-4.71,7.57-8.41,13.21-7.67.12.02.23-.05.27-.17.04-.11,0-.24-.11-.3-2.8-1.68-5.87-2.38-9.86-1.05,5.79-4.91,14.05-7.74,21.84-5.23.11.04.23,0,.29-.1s.05-.22-.03-.31c-5.91-6.56-17.69-6.7-25.11-1.37,3.04-4.32,7.07-7.49,14.29-8.48.12-.02.21-.11.22-.22.01-.12-.05-.22-.16-.27-8.29-3.08-16.6.04-23.45,8.22,2.99-6.38,7.91-11.49,14.77-14.01.12-.04.18-.16.16-.28-.02-.12-.12-.21-.24-.21-3.94-.08-7.49.86-12.27,3.57,3.51-5.69,2.74-15.64-2.37-22.26-.07-.09-.2-.12-.3-.08-.11.05-.17.16-.15.28,1.18,7.2-1.3,15.33-5.61,19.64,2.15-7.63,0-14.58-5.9-19.64-.07-.06-.17-.08-.26-.04-.09.03-.15.11-.16.2-1.23,9.42-11.77,18.97-20.6,19.78-.12.01-.22.11-.23.24s.07.24.2.26c4.28.97,8.69.49,12.39-1.03-2.66,2.93-5.94,5.11-9.55,6.24-.12.04-.19.15-.18.27.01.12.11.22.23.22,4.51.31,8.92-1.01,12.73-3.54-4.36,6.62-10.98,11.54-19.43,13.51-.12.03-.2.14-.2.26,0,.12.1.22.23.24,11.92,1.3,21.75-3.32,28.22-11.92-1.65,4.9-6.37,9.76-12.95,12.62-5.85,2.55-11.85,2.95-16.42,1.51-.11-.03-.22,0-.29.1-.06.09-.06.22.01.3ZM5.52,125.05c-4.81,10.49-4.46,18.69-.59,29.05.05.12.17.19.29.16s.21-.14.2-.26c-.62-12.62,2.83-21.65,10.3-27.81-8.25,9.85-4.35,29.56,8.82,29.56,9.59,0,17.52-7.98,19.46-17.53.03-.12-.04-.24-.16-.29-.12-.04-.25,0-.31.11-2.84,4.76-7.41,7.85-12.46,7.85-8.13,0-10.54-6.47-10.54-11,0-6.19,4.93-11.34,8.71-11.34,3.44,0,5.04,2.82,5.04,4.93,0,3.9-3,7.17-6.38,8.16-.12.04-.2.15-.18.28s.12.22.25.22c4.11.03,7.58-1.85,9.63-5.57.27,2.88.27,4.69-.64,7.72-.04.12.02.24.12.3.11.05.24.03.32-.07,7.36-9.39,3.84-25.62-1.98-32.36,5.53,3.98,10.42,12.63,10.34,24.39,0,.12.08.23.21.25.12.02.24-.04.28-.15,4.11-10.25,1.93-29.25-9.28-39.85,2.88-.4,5.87-.35,9.12.69.12.04.24-.01.3-.12.06-.11.04-.24-.06-.32-4.09-3.46-9.81-4.54-15.27-4.54,4.7,5.5,3.14,16.55-4.35,16.55-5.35,0-7.78-8.3-3.65-12.78.08-.09.09-.21.03-.31-.06-.1-.19-.14-.3-.1-4.78,1.66-9.95,5.79-9.95,11.02s4.81,9.39,11.8,9.05c-8.82,2.5-18.05-.27-22.88-6.25-.07-.09-.2-.12-.31-.07-.11.05-.16.17-.13.29,2.79,10.71,11.97,15.2,23.44,13.71-9.28,3.76-23.25.48-29.42-7.31-.07-.09-.2-.12-.31-.07-.11.05-.16.17-.14.28,1.37,6.62,4.86,11.56,10.62,13.52Z" fill="#9ddcf9" opacity=".4"/>
        </g>
        <g>
          <path d="M87.47,34.69c.02-.12.12-.21.25-.21,12.91-.13,24.75-3.27,33.97-11.51-8.03,5.56-22.94,7.51-31.53,3.62-.11-.05-.17-.17-.14-.29.03-.12.13-.2.25-.2,10.68.29,19.28-3.01,25.98-8.96-6.87-.42-12.57-4.74-12.56-9.84,0-.12.08-.22.2-.25.12-.03.23.04.28.14,1.12,2.49,4.75,3.78,8.58,2.88,4.18-.98,7-4.19,6.3-7.16-.47-2.01-2.44-3.4-4.95-3.79-.13-.02-.22-.13-.22-.26,0-.13.1-.23.23-.25,1.07-.1,2.18-.11,3.32,0,6.49.62,11.51,4.6,11.95,9.18,4.71-.55,8.88-3.16,10.38-6.77.04-.11.16-.17.28-.15.12.02.2.11.21.23.38,4.75-1.26,7.84-4.97,10.85,5.38-2.06,11.45-2.16,17.26.54.11.05.16.16.14.28-.02.12-.12.2-.24.2-4.88.19-8.42,1.76-11.73,5.07,18.25-5.13,33.09,6.2,27.95,23.05-.04.12-.15.19-.27.18-.12-.01-.22-.11-.23-.23-.92-9.71-7.7-16.12-17.86-17.08,5.39,2.06,11,6.98,11.56,15.53,0,.12-.07.23-.19.26-.12.03-.24-.03-.29-.14-2.8-6.15-8.3-9.27-14.16-9.81,6.33,2.58,10.4,8.6,11.57,16.42.02.12-.05.24-.17.28-.12.04-.25-.02-.3-.12-3.87-7.58-12.16-12.79-22.45-8.81-10.62,4.11-15.27,16.39-16.3,25.04-.02.12-.12.21-.24.22s-.23-.07-.26-.2c-3.72-15.69,3.58-31.95,16.64-38.84-7.1,2-13.44,6.26-17.03,13.35-8.29,1.02-14,3.86-16.86,9.24-.06.11-.18.16-.29.12-.12-.03-.19-.14-.18-.27.18-2.11.94-6.33,4.07-8.27-6.96.01-12.51-.89-17.8-3.01-.11-.05-.18-.16-.15-.28ZM116.96,88.17c-.1-.07-.23-.05-.32.03-.09.08-.1.21-.04.31,1.62,2.8.14,6.81-3.05,6.81-5.72,0-8.47-10.77-7.6-20.59,2.16,5.76,4.03,8.05,7.35,10.79.09.08.23.08.32,0,.09-.08.12-.21.06-.32-4.86-9.08-5.9-16.07-5.9-24.09,1.46,5.96,3.2,9.32,8.13,14.38.09.09.22.1.32.03.1-.07.14-.2.09-.32-5.3-11.59-4.89-24.45-.95-34.26.04-.1.01-.21-.06-.28-.08-.07-.19-.09-.29-.04-5.21,2.55-8.26,4.23-12.75,10.39,1.36,7.4.23,11.05-3.17,17.2,3.94-9.92,1.84-23.89-8.19-29.59-.11-.06-.25-.03-.32.06-.08.1-.07.24.02.33,3.78,3.96,6.53,10.63,4.16,17.93,1.53-10.39-7.6-19.12-17.78-19.12-9.6,0-16.15,7.51-15.61,14.94.54,7.37,5.44,10.97,9.67,12.5.11.04.24,0,.3-.1.06-.1.05-.23-.03-.32-5.61-5.69-6.38-16.49,3.58-19.76-5.86,5.06-3.69,16.83,5.69,17.72.12.01.23-.06.26-.17s0-.23-.1-.3c-2.01-1.28-3.68-3.77-3.68-6.57,0-4.67,3.42-6.51,5.68-6.51,3.42,0,6.26,3.26,6.26,8.18,0,5.84-5.26,10.68-12.02,11.44-6.63.73-12.78-2.15-15.75-6.46-.07-.1-.2-.14-.31-.09s-.17.18-.14.29c3.02,11.7,16.8,16.88,26.89,9.51-6.61,7.5-17.01,7.61-25.72-.09-.09-.08-.23-.08-.32,0-.1.07-.13.21-.07.31,2.67,5.41,9.25,11.82,18.61,10.88,8.56-.86,13.52-9.01,14.52-15.69.56,8.52-1.39,14.54-8.75,20.15-.1.07-.13.21-.07.32.05.11.18.16.3.13,6.79-1.96,12.23-5.43,15.05-12.54,0,6.16-2.14,12.37-7.53,16.51-.1.07-.13.21-.07.31s.18.16.3.13c3.45-.98,6.17-2.49,8.14-5.19,1.31,11.1,6.52,17.69,12.52,17.69,4.12,0,7.2-3.03,7.2-7.87,0-2.83-1.49-6.8-4.81-9.02ZM216.19-3.45c-3.16-3.9-9.54-5.39-16.43-3.99.51-4.3-.33-8.79-1.61-11.48-.05-.11-.17-.17-.29-.14-.12.03-.2.14-.19.26.37,8.77-4.62,15.84-13.45,18.91,6.91-4.76,8.93-14.19,5.64-19.07-.07-.1-.2-.14-.31-.09-.11.04-.18.16-.15.28.37,2.06-.61,4.68-2.71,6.73-2.91,2.81-6.85,3.45-8.81,1.43-1.96-2.03-1.2-5.95,1.71-8.76,1.06-1.03,2.26-1.76,3.45-2.18.11-.04.18-.15.17-.27-.01-.12-.11-.21-.23-.22-6.39-.55-10.77,3.25-13.52,7.88-2.79,4.71-7.57,8.41-13.21,7.67-.12-.02-.23.05-.27.17-.04.11,0,.24.11.3,2.8,1.68,5.87,2.38,9.86,1.05-5.79,4.91-14.05,7.74-21.84,5.23-.11-.04-.23,0-.29.1-.06.1-.05.22.03.31,5.91,6.56,17.69,6.7,25.11,1.37-3.04,4.32-7.07,7.48-14.29,8.48-.12.02-.2.11-.22.22-.01.12.05.23.16.27,8.29,3.08,16.6-.04,23.45-8.21-2.99,6.38-7.91,11.48-14.77,14.01-.12.04-.18.16-.16.28.02.12.12.21.24.21,3.94.08,7.49-.86,12.27-3.57-3.51,5.69-2.74,15.64,2.37,22.26.07.09.2.12.3.08.11-.05.17-.16.15-.27-1.18-7.2,1.3-15.33,5.61-19.64-2.15,7.63,0,14.58,5.9,19.64.07.06.17.08.26.04.09-.03.15-.11.16-.2,1.23-9.42,11.77-18.97,20.6-19.78.12-.01.22-.11.23-.24s-.07-.24-.2-.26c-4.28-.97-8.69-.49-12.39,1.03,2.66-2.93,5.94-5.11,9.56-6.25.12-.04.19-.15.18-.27-.01-.12-.11-.21-.23-.22-4.51-.31-8.92,1.01-12.73,3.54,4.36-6.62,10.98-11.54,19.43-13.51.12-.03.2-.14.2-.26,0-.12-.1-.22-.23-.24-11.92-1.3-21.75,3.32-28.22,11.92,1.65-4.9,6.37-9.76,12.95-12.62,5.85-2.54,11.85-2.95,16.42-1.51.11.03.22,0,.29-.1.06-.09.06-.21-.01-.3ZM163.28,72.12c4.81-10.49,4.46-18.69.59-29.05-.04-.12-.17-.18-.29-.16-.12.03-.21.14-.2.26.62,12.62-2.83,21.65-10.3,27.81,8.25-9.85,4.35-29.56-8.82-29.56-9.59,0-17.52,7.98-19.45,17.52-.03.12.04.24.16.29.12.04.25,0,.31-.11,2.84-4.76,7.41-7.85,12.46-7.85,8.13,0,10.54,6.47,10.54,11,0,6.19-4.93,11.34-8.71,11.34-3.44,0-5.04-2.82-5.04-4.93,0-3.9,3-7.17,6.38-8.16.12-.04.2-.15.18-.28-.02-.12-.12-.22-.25-.22-4.11-.03-7.58,1.86-9.63,5.57-.27-2.87-.27-4.69.64-7.72.04-.12-.02-.24-.12-.3-.11-.06-.24-.03-.32.07-7.36,9.39-3.84,25.62,1.98,32.36-5.53-3.98-10.42-12.63-10.34-24.39,0-.12-.08-.23-.21-.25-.12-.03-.24.04-.28.15-4.11,10.25-1.93,29.25,9.28,39.85-2.88.4-5.87.35-9.12-.69-.12-.04-.24.01-.3.12-.06.11-.04.24.06.32,4.09,3.46,9.81,4.54,15.27,4.54-4.7-5.5-3.14-16.55,4.36-16.55,5.35,0,7.78,8.3,3.65,12.78-.08.09-.09.21-.03.31.06.1.19.14.3.1,4.78-1.65,9.95-5.79,9.95-11.02s-4.81-9.39-11.8-9.05c8.82-2.51,18.05.27,22.88,6.25.07.09.21.12.31.07.11-.05.16-.18.13-.29-2.79-10.72-11.97-15.2-23.44-13.71,9.28-3.76,23.25-.48,29.42,7.31.07.09.2.12.31.07.11-.05.16-.17.14-.28-1.37-6.62-4.86-11.56-10.62-13.52Z" fill="#00427e"/>
          <path d="M189.67,52.83c-.02.12-.12.21-.25.21-12.91.14-24.75,3.27-33.97,11.52,8.03-5.56,22.94-7.51,31.53-3.62.11.05.17.17.14.29-.03.12-.13.2-.25.2-10.68-.29-19.28,3.01-25.98,8.96,6.87.42,12.57,4.74,12.56,9.85,0,.12-.08.22-.2.25-.12.02-.23-.04-.28-.14-1.12-2.49-4.75-3.78-8.58-2.88-4.18.98-7,4.19-6.3,7.17.47,2.01,2.44,3.4,4.95,3.79.13.02.22.13.22.26,0,.13-.1.23-.23.25-1.07.1-2.18.11-3.32,0-6.49-.62-11.51-4.59-11.95-9.18-4.71.55-8.88,3.16-10.38,6.77-.04.11-.16.17-.28.15-.12-.02-.2-.11-.21-.23-.38-4.75,1.26-7.84,4.97-10.85-5.38,2.06-11.45,2.16-17.26-.54-.11-.05-.16-.17-.14-.28.02-.12.12-.2.24-.2,4.88-.19,8.42-1.76,11.73-5.07-18.26,5.13-33.09-6.2-27.96-23.05.04-.12.15-.19.27-.18s.22.11.23.23c.92,9.71,7.7,16.12,17.86,17.08-5.39-2.06-11-6.97-11.56-15.53,0-.12.07-.23.19-.26.12-.03.24.03.29.14,2.8,6.15,8.3,9.26,14.16,9.81-6.33-2.58-10.4-8.6-11.57-16.42-.02-.12.05-.24.17-.28.12-.04.25.02.3.13,3.87,7.58,12.16,12.79,22.45,8.81,10.62-4.11,15.27-16.38,16.3-25.04.02-.12.12-.22.24-.22.12,0,.23.08.26.2,3.72,15.69-3.58,31.95-16.64,38.84,7.1-2,13.44-6.26,17.03-13.35,8.29-1.02,14-3.86,16.86-9.24.06-.11.18-.16.29-.12.12.04.19.15.18.27-.18,2.11-.94,6.33-4.07,8.27,6.96-.01,12.51.89,17.8,3.01.11.04.18.16.15.28ZM160.18-.64c.1.06.23.05.32-.03.09-.08.1-.21.04-.31-1.62-2.8-.14-6.81,3.05-6.81,5.72,0,8.47,10.77,7.6,20.59-2.16-5.75-4.03-8.05-7.35-10.79-.09-.08-.23-.08-.32,0-.09.08-.12.21-.06.32,4.86,9.08,5.9,16.06,5.9,24.08-1.46-5.96-3.2-9.32-8.13-14.38-.09-.09-.22-.1-.32-.03-.1.07-.14.2-.09.31,5.3,11.59,4.89,24.45.95,34.26-.04.1-.01.21.06.28.08.07.19.09.29.04,5.21-2.55,8.26-4.23,12.75-10.39-1.36-7.4-.23-11.05,3.17-17.19-3.94,9.92-1.84,23.89,8.19,29.59.11.06.25.04.32-.06.08-.1.07-.24-.02-.33-3.78-3.96-6.53-10.63-4.16-17.93-1.53,10.39,7.6,19.11,17.78,19.11,9.6,0,16.15-7.51,15.61-14.94-.54-7.37-5.44-10.97-9.67-12.5-.11-.04-.24,0-.3.1-.06.1-.05.23.03.31,5.61,5.69,6.38,16.49-3.58,19.76,5.86-5.06,3.69-16.83-5.69-17.72-.12,0-.23.06-.26.17-.04.11,0,.23.1.29,2.01,1.28,3.68,3.77,3.68,6.57,0,4.67-3.42,6.51-5.68,6.51-3.42,0-6.26-3.26-6.26-8.18,0-5.84,5.26-10.68,12.02-11.43,6.63-.74,12.78,2.15,15.75,6.46.07.1.2.14.31.09.11-.05.17-.17.14-.29-3.02-11.7-16.8-16.88-26.89-9.51,6.61-7.5,17.01-7.61,25.72.09.09.08.22.09.32.01.1-.07.13-.21.07-.31-2.67-5.41-9.25-11.82-18.61-10.88-8.56.86-13.52,9.02-14.52,15.69-.56-8.52,1.39-14.54,8.75-20.14.1-.07.13-.21.07-.32-.05-.11-.18-.16-.3-.13-6.79,1.96-12.23,5.42-15.05,12.54,0-6.16,2.14-12.37,7.53-16.51.1-.07.13-.21.07-.32-.05-.11-.18-.16-.29-.13-3.45.98-6.17,2.49-8.14,5.18-1.31-11.1-6.52-17.69-12.53-17.69-4.12,0-7.21,3.03-7.21,7.87,0,2.83,1.49,6.8,4.81,9.02ZM60.95,90.98c3.16,3.9,9.54,5.39,16.43,3.99-.51,4.3.33,8.79,1.61,11.49.05.11.17.17.29.14.12-.03.2-.14.19-.26-.37-8.77,4.62-15.84,13.45-18.91-6.91,4.76-8.93,14.19-5.64,19.06.07.1.2.14.31.09.11-.04.18-.16.15-.28-.37-2.06.61-4.68,2.71-6.72,2.91-2.81,6.85-3.45,8.81-1.43,1.96,2.03,1.2,5.95-1.71,8.76-1.06,1.03-2.26,1.76-3.45,2.19-.11.04-.18.15-.17.27.01.12.11.21.23.22,6.39.55,10.77-3.25,13.52-7.88,2.79-4.71,7.57-8.41,13.21-7.67.12.02.23-.05.27-.17.04-.11,0-.24-.11-.3-2.8-1.68-5.87-2.38-9.86-1.05,5.8-4.91,14.05-7.74,21.84-5.23.11.04.23,0,.29-.1.06-.1.05-.22-.03-.31-5.91-6.56-17.69-6.7-25.11-1.37,3.04-4.32,7.07-7.49,14.29-8.48.12-.02.21-.11.22-.22.01-.12-.05-.22-.16-.27-8.29-3.08-16.6.04-23.45,8.22,2.99-6.38,7.91-11.49,14.77-14.01.12-.04.18-.16.16-.28-.02-.12-.12-.21-.24-.21-3.94-.08-7.49.86-12.26,3.57,3.51-5.69,2.74-15.64-2.37-22.26-.07-.09-.2-.12-.3-.08-.11.05-.17.16-.15.28,1.18,7.2-1.3,15.33-5.61,19.64,2.15-7.63,0-14.58-5.9-19.64-.07-.06-.17-.08-.26-.04-.09.03-.15.11-.16.2-1.23,9.42-11.77,18.97-20.6,19.78-.12.01-.22.11-.23.24,0,.12.07.24.2.26,4.28.97,8.69.49,12.39-1.03-2.66,2.93-5.94,5.11-9.55,6.24-.12.04-.19.15-.18.27.01.12.11.22.23.22,4.51.31,8.92-1.01,12.73-3.54-4.36,6.62-10.98,11.54-19.43,13.51-.12.03-.2.14-.2.26,0,.12.1.22.23.24,11.92,1.3,21.75-3.32,28.22-11.92-1.65,4.9-6.37,9.76-12.95,12.62-5.85,2.54-11.85,2.95-16.42,1.51-.11-.03-.22,0-.29.1-.06.09-.06.22.01.3ZM113.86,15.41c-4.81,10.49-4.46,18.69-.59,29.05.04.12.17.19.29.16.12-.03.21-.14.2-.26-.62-12.62,2.83-21.65,10.3-27.81-8.25,9.85-4.35,29.56,8.82,29.56,9.59,0,17.52-7.98,19.46-17.53.03-.12-.04-.24-.16-.29-.12-.04-.25,0-.31.11-2.84,4.76-7.41,7.85-12.46,7.85-8.13,0-10.54-6.47-10.54-11,0-6.19,4.93-11.34,8.71-11.34,3.44,0,5.04,2.82,5.04,4.93,0,3.9-3,7.17-6.37,8.16-.12.04-.2.15-.18.28.02.12.12.22.25.22,4.11.03,7.58-1.85,9.63-5.57.27,2.87.27,4.69-.64,7.72-.04.12.02.24.12.3.11.05.24.03.32-.07,7.36-9.39,3.84-25.62-1.98-32.36,5.53,3.98,10.42,12.63,10.34,24.39,0,.12.08.23.21.25.12.02.24-.04.28-.15,4.11-10.25,1.93-29.25-9.28-39.85,2.88-.4,5.87-.35,9.12.69.12.04.24-.01.3-.12.06-.11.04-.24-.06-.32-4.09-3.46-9.81-4.54-15.27-4.54,4.7,5.5,3.14,16.55-4.35,16.55-5.35,0-7.78-8.3-3.65-12.78.08-.09.09-.21.03-.31-.06-.1-.19-.14-.3-.1-4.78,1.66-9.95,5.79-9.95,11.02s4.81,9.39,11.8,9.05c-8.82,2.5-18.05-.27-22.88-6.25-.07-.09-.2-.12-.31-.07-.11.05-.16.17-.13.29,2.79,10.71,11.97,15.2,23.44,13.71-9.28,3.76-23.25.48-29.42-7.31-.07-.09-.2-.12-.31-.07-.11.05-.16.17-.14.28,1.37,6.62,4.86,11.56,10.62,13.52Z" fill="#9ddcf9" opacity=".4"/>
        </g>
        <g>
          <path d="M-20.86,34.69c.02-.12.12-.21.25-.21,12.91-.13,24.75-3.27,33.97-11.51-8.03,5.56-22.94,7.51-31.53,3.62-.11-.05-.17-.17-.14-.29.03-.12.13-.2.25-.2,10.68.29,19.28-3.01,25.98-8.96-6.87-.42-12.57-4.74-12.56-9.84,0-.12.08-.22.2-.25.12-.03.23.04.28.14,1.12,2.49,4.75,3.78,8.58,2.88,4.18-.98,7-4.19,6.3-7.16-.47-2.01-2.44-3.4-4.95-3.79-.13-.02-.22-.13-.22-.26,0-.13.1-.23.23-.25,1.07-.1,2.18-.11,3.32,0,6.49.62,11.51,4.6,11.95,9.18,4.71-.55,8.88-3.16,10.38-6.77.04-.11.16-.17.28-.15.12.02.2.11.21.23.38,4.75-1.26,7.84-4.97,10.85,5.38-2.06,11.45-2.16,17.26.54.11.05.16.16.14.28-.02.12-.12.2-.24.2-4.88.19-8.42,1.76-11.73,5.07,18.25-5.13,33.09,6.2,27.95,23.05-.04.12-.15.19-.27.18-.12-.01-.22-.11-.23-.23-.92-9.71-7.7-16.12-17.86-17.08,5.39,2.06,11,6.98,11.56,15.53,0,.12-.07.23-.19.26-.12.03-.24-.03-.29-.14-2.8-6.15-8.3-9.27-14.16-9.81,6.33,2.58,10.4,8.6,11.57,16.42.02.12-.05.24-.17.28-.12.04-.25-.02-.3-.12-3.87-7.58-12.16-12.79-22.45-8.81-10.62,4.11-15.27,16.39-16.3,25.04-.02.12-.12.21-.24.22-.12,0-.23-.07-.26-.2-3.72-15.69,3.58-31.95,16.64-38.84-7.1,2-13.44,6.26-17.03,13.35-8.29,1.02-14,3.86-16.86,9.24-.06.11-.18.16-.29.12-.12-.03-.19-.14-.18-.27.18-2.11.94-6.33,4.07-8.27-6.97.01-12.51-.89-17.8-3.01-.11-.05-.18-.16-.15-.28ZM8.62,88.17c-.1-.07-.23-.05-.32.03-.09.08-.1.21-.04.31,1.62,2.8.14,6.81-3.05,6.81-5.72,0-8.47-10.77-7.6-20.59,2.16,5.76,4.03,8.05,7.35,10.79.09.08.23.08.32,0,.09-.08.12-.21.06-.32C.49,76.12-.55,69.14-.55,61.12c1.46,5.96,3.2,9.32,8.13,14.38.09.09.22.1.32.03.1-.07.14-.2.09-.32-5.3-11.59-4.89-24.45-.95-34.26.04-.1.01-.21-.06-.28-.08-.07-.19-.09-.29-.04-5.21,2.55-8.26,4.23-12.75,10.39,1.36,7.4.23,11.05-3.17,17.2,3.94-9.92,1.84-23.89-8.19-29.59-.11-.06-.25-.03-.32.06-.08.1-.07.24.02.33,3.78,3.96,6.53,10.63,4.16,17.93,1.53-10.39-7.6-19.12-17.78-19.12-9.6,0-16.15,7.51-15.61,14.94.54,7.37,5.44,10.97,9.67,12.5.11.04.24,0,.3-.1.06-.1.05-.23-.03-.32-5.61-5.69-6.38-16.49,3.58-19.76-5.86,5.06-3.69,16.83,5.69,17.72.12.01.23-.06.26-.17s0-.23-.1-.3c-2.01-1.28-3.68-3.77-3.68-6.57,0-4.67,3.42-6.51,5.68-6.51,3.42,0,6.26,3.26,6.26,8.18,0,5.84-5.26,10.68-12.02,11.44-6.63.73-12.78-2.15-15.75-6.46-.07-.1-.2-.14-.31-.09-.11.05-.17.18-.14.29,3.02,11.7,16.8,16.88,26.89,9.51-6.61,7.5-17.01,7.61-25.72-.09-.09-.08-.23-.08-.32,0-.1.07-.13.21-.07.31,2.67,5.41,9.25,11.82,18.61,10.88,8.56-.86,13.52-9.01,14.52-15.69.56,8.52-1.39,14.54-8.75,20.15-.1.07-.13.21-.07.32.05.11.18.16.3.13,6.79-1.96,12.23-5.43,15.05-12.54,0,6.16-2.14,12.37-7.53,16.51-.1.07-.13.21-.07.31s.18.16.3.13c3.45-.98,6.17-2.49,8.14-5.19,1.31,11.1,6.52,17.69,12.53,17.69,4.12,0,7.21-3.03,7.21-7.87,0-2.83-1.49-6.8-4.81-9.02ZM107.85-3.45c-3.16-3.9-9.54-5.39-16.43-3.99.51-4.3-.33-8.79-1.61-11.48-.05-.11-.17-.17-.29-.14-.12.03-.2.14-.19.26.37,8.77-4.62,15.84-13.45,18.91,6.91-4.76,8.93-14.19,5.64-19.07-.07-.1-.2-.14-.31-.09-.11.04-.18.16-.15.28.37,2.06-.61,4.68-2.71,6.73-2.91,2.81-6.85,3.45-8.81,1.43-1.96-2.03-1.2-5.95,1.71-8.76,1.06-1.03,2.26-1.76,3.45-2.18.11-.04.18-.15.17-.27-.01-.12-.11-.21-.23-.22-6.39-.55-10.77,3.25-13.52,7.88-2.79,4.71-7.57,8.41-13.21,7.67-.12-.02-.23.05-.27.17-.04.11,0,.24.11.3,2.8,1.68,5.87,2.38,9.86,1.05C51.8-.08,43.55,2.75,35.75.24c-.11-.04-.23,0-.29.1-.06.1-.05.22.03.31,5.91,6.56,17.69,6.7,25.11,1.37-3.04,4.32-7.07,7.48-14.29,8.48-.12.02-.2.11-.22.22-.01.12.05.23.16.27,8.29,3.08,16.6-.04,23.45-8.21-2.99,6.38-7.91,11.48-14.77,14.01-.12.04-.18.16-.16.28.02.12.12.21.24.21,3.94.08,7.49-.86,12.27-3.57-3.51,5.69-2.74,15.64,2.37,22.26.07.09.2.12.3.08.11-.05.17-.16.15-.27-1.18-7.2,1.3-15.33,5.61-19.64-2.15,7.63,0,14.58,5.9,19.64.07.06.17.08.26.04.09-.03.15-.11.16-.2,1.23-9.42,11.77-18.97,20.6-19.78.12-.01.22-.11.23-.24s-.07-.24-.2-.26c-4.28-.97-8.69-.49-12.39,1.03,2.66-2.93,5.94-5.11,9.55-6.25.12-.04.19-.15.18-.27-.01-.12-.11-.21-.23-.22-4.51-.31-8.92,1.01-12.73,3.54,4.36-6.62,10.98-11.54,19.43-13.51.12-.03.2-.14.2-.26,0-.12-.1-.22-.23-.24-11.92-1.3-21.75,3.32-28.22,11.92,1.65-4.9,6.37-9.76,12.95-12.62,5.85-2.54,11.85-2.95,16.42-1.51.11.03.22,0,.29-.1.06-.09.06-.21-.01-.3ZM54.94,72.12c4.81-10.49,4.46-18.69.59-29.05-.04-.12-.17-.18-.29-.16-.12.03-.21.14-.2.26.62,12.62-2.83,21.65-10.3,27.81,8.25-9.85,4.35-29.56-8.82-29.56-9.59,0-17.52,7.98-19.45,17.52-.03.12.04.24.16.29.12.04.25,0,.31-.11,2.84-4.76,7.41-7.85,12.46-7.85,8.13,0,10.54,6.47,10.54,11,0,6.19-4.93,11.34-8.71,11.34-3.44,0-5.04-2.82-5.04-4.93,0-3.9,3-7.17,6.38-8.16.12-.04.2-.15.18-.28-.02-.12-.12-.22-.25-.22-4.11-.03-7.58,1.86-9.63,5.57-.27-2.87-.27-4.69.64-7.72.04-.12-.02-.24-.12-.3-.11-.06-.24-.03-.32.07-7.36,9.39-3.84,25.62,1.98,32.36-5.53-3.98-10.42-12.63-10.34-24.39,0-.12-.08-.23-.2-.25-.12-.03-.24.04-.28.15-4.11,10.25-1.93,29.25,9.28,39.85-2.88.4-5.87.35-9.12-.69-.12-.04-.24.01-.3.12-.06.11-.04.24.06.32,4.09,3.46,9.81,4.54,15.27,4.54-4.7-5.5-3.14-16.55,4.36-16.55,5.35,0,7.78,8.3,3.65,12.78-.08.09-.09.21-.03.31.06.1.19.14.3.1,4.78-1.65,9.95-5.79,9.95-11.02s-4.81-9.39-11.8-9.05c8.82-2.51,18.05.27,22.88,6.25.07.09.21.12.31.07.11-.05.16-.18.13-.29-2.79-10.72-11.97-15.2-23.44-13.71,9.28-3.76,23.25-.48,29.42,7.31.07.09.2.12.31.07.11-.05.16-.17.14-.28-1.37-6.62-4.86-11.56-10.62-13.52Z" fill="#00427e"/>
          <path d="M81.33,52.83c-.02.12-.12.21-.25.21-12.91.14-24.75,3.27-33.97,11.52,8.03-5.56,22.94-7.51,31.53-3.62.11.05.17.17.14.29-.03.12-.13.2-.25.2-10.68-.29-19.28,3.01-25.98,8.96,6.87.42,12.57,4.74,12.56,9.85,0,.12-.08.22-.2.25-.12.02-.23-.04-.28-.14-1.12-2.49-4.75-3.78-8.58-2.88-4.18.98-7,4.19-6.3,7.17.47,2.01,2.44,3.4,4.95,3.79.13.02.22.13.22.26,0,.13-.1.23-.23.25-1.07.1-2.18.11-3.32,0-6.49-.62-11.51-4.59-11.95-9.18-4.71.55-8.88,3.16-10.38,6.77-.04.11-.16.17-.28.15-.12-.02-.2-.11-.21-.23-.38-4.75,1.26-7.84,4.97-10.85-5.38,2.06-11.45,2.16-17.26-.54-.11-.05-.16-.17-.14-.28.02-.12.12-.2.24-.2,4.88-.19,8.42-1.76,11.73-5.07C9.82,74.61-5.01,63.28.12,46.43c.04-.12.15-.19.27-.18s.22.11.23.23c.92,9.71,7.7,16.12,17.86,17.08-5.39-2.06-11-6.97-11.56-15.53,0-.12.07-.23.19-.26.12-.03.24.03.29.14,2.8,6.15,8.3,9.26,14.16,9.81-6.33-2.58-10.4-8.6-11.57-16.42-.02-.12.05-.24.17-.28.12-.04.25.02.3.13,3.87,7.58,12.16,12.79,22.45,8.81,10.62-4.11,15.27-16.38,16.3-25.04.02-.12.12-.22.24-.22.12,0,.23.08.26.2,3.72,15.69-3.58,31.95-16.64,38.84,7.1-2,13.44-6.26,17.03-13.35,8.29-1.02,14-3.86,16.86-9.24.06-.11.18-.16.29-.12.12.04.19.15.18.27-.18,2.11-.94,6.33-4.07,8.27,6.96-.01,12.51.89,17.8,3.01.11.04.18.16.15.28ZM51.84-.64c.1.06.23.05.32-.03.09-.08.1-.21.04-.31-1.62-2.8-.14-6.81,3.05-6.81,5.72,0,8.47,10.77,7.6,20.59-2.16-5.75-4.03-8.05-7.35-10.79-.09-.08-.23-.08-.32,0-.09.08-.12.21-.06.32,4.86,9.08,5.9,16.06,5.9,24.08-1.46-5.96-3.2-9.32-8.13-14.38-.09-.09-.22-.1-.32-.03-.1.07-.14.2-.09.31,5.3,11.59,4.89,24.45.95,34.26-.04.1-.01.21.06.28.08.07.19.09.29.04,5.21-2.55,8.26-4.23,12.75-10.39-1.36-7.4-.23-11.05,3.17-17.19-3.94,9.92-1.84,23.89,8.19,29.59.11.06.25.04.32-.06.08-.1.07-.24-.02-.33-3.78-3.96-6.53-10.63-4.16-17.93-1.53,10.39,7.6,19.11,17.78,19.11,9.6,0,16.15-7.51,15.61-14.94-.54-7.37-5.44-10.97-9.67-12.5-.11-.04-.24,0-.3.1-.06.1-.05.23.03.31,5.61,5.69,6.38,16.49-3.58,19.76,5.86-5.06,3.69-16.83-5.69-17.72-.12,0-.23.06-.26.17-.04.11,0,.23.1.29,2.01,1.28,3.68,3.77,3.68,6.57,0,4.67-3.42,6.51-5.68,6.51-3.42,0-6.26-3.26-6.26-8.18,0-5.84,5.26-10.68,12.02-11.43,6.63-.74,12.78,2.15,15.75,6.46.07.1.2.14.31.09.11-.05.17-.17.14-.29-3.02-11.7-16.8-16.88-26.89-9.51,6.61-7.5,17.01-7.61,25.72.09.09.08.22.09.32.01.1-.07.13-.21.07-.31-2.67-5.41-9.25-11.82-18.61-10.88-8.56.86-13.52,9.02-14.52,15.69-.56-8.52,1.39-14.54,8.75-20.14.1-.07.13-.21.07-.32s-.18-.16-.3-.13c-6.79,1.96-12.23,5.42-15.05,12.54,0-6.16,2.14-12.37,7.53-16.51.1-.07.13-.21.07-.32-.05-.11-.18-.16-.29-.13-3.45.98-6.17,2.49-8.14,5.18-1.31-11.1-6.52-17.69-12.53-17.69-4.12,0-7.21,3.03-7.21,7.87,0,2.83,1.49,6.8,4.81,9.02ZM-47.39,90.98c3.16,3.9,9.54,5.39,16.43,3.99-.51,4.3.33,8.79,1.61,11.49.05.11.17.17.29.14s.2-.14.19-.26c-.38-8.77,4.62-15.84,13.45-18.91-6.91,4.76-8.93,14.19-5.64,19.06.07.1.2.14.31.09.11-.04.18-.16.15-.28-.37-2.06.61-4.68,2.71-6.72,2.91-2.81,6.85-3.45,8.81-1.43,1.96,2.03,1.2,5.95-1.71,8.76-1.06,1.03-2.26,1.76-3.45,2.19-.11.04-.18.15-.17.27.01.12.11.21.23.22,6.39.55,10.77-3.25,13.52-7.88,2.8-4.71,7.57-8.41,13.21-7.67.12.02.23-.05.27-.17.04-.11,0-.24-.11-.3-2.8-1.68-5.87-2.38-9.86-1.05,5.79-4.91,14.05-7.74,21.84-5.23.11.04.23,0,.29-.1.06-.1.05-.22-.03-.31-5.91-6.56-17.69-6.7-25.11-1.37,3.04-4.32,7.07-7.49,14.29-8.48.12-.02.21-.11.22-.22.01-.12-.05-.22-.16-.27-8.29-3.08-16.6.04-23.45,8.22,2.99-6.38,7.91-11.49,14.77-14.01.12-.04.18-.16.16-.28-.02-.12-.12-.21-.24-.21-3.94-.08-7.49.86-12.27,3.57,3.51-5.69,2.74-15.64-2.37-22.26-.07-.09-.2-.12-.3-.08-.11.05-.17.16-.15.28,1.18,7.2-1.3,15.33-5.61,19.64,2.15-7.63,0-14.58-5.9-19.64-.07-.06-.17-.08-.26-.04-.09.03-.15.11-.16.2-1.23,9.42-11.77,18.97-20.6,19.78-.12.01-.22.11-.23.24s.07.24.2.26c4.28.97,8.69.49,12.39-1.03-2.66,2.93-5.94,5.11-9.55,6.24-.12.04-.19.15-.18.27.01.12.11.22.23.22,4.51.31,8.92-1.01,12.73-3.54-4.36,6.62-10.98,11.54-19.43,13.51-.12.03-.2.14-.2.26,0,.12.1.22.23.24,11.92,1.3,21.75-3.32,28.22-11.92-1.65,4.9-6.37,9.76-12.95,12.62-5.85,2.54-11.85,2.95-16.42,1.51-.11-.03-.22,0-.29.1-.06.09-.06.22.01.3ZM5.52,15.41c-4.81,10.49-4.46,18.69-.59,29.05.05.12.17.19.29.16s.21-.14.2-.26c-.62-12.62,2.83-21.65,10.3-27.81-8.25,9.85-4.35,29.56,8.82,29.56,9.59,0,17.52-7.98,19.46-17.53.03-.12-.04-.24-.16-.29-.12-.04-.25,0-.31.11-2.84,4.76-7.41,7.85-12.46,7.85-8.13,0-10.54-6.47-10.54-11,0-6.19,4.93-11.34,8.71-11.34,3.44,0,5.04,2.82,5.04,4.93,0,3.9-3,7.17-6.38,8.16-.12.04-.2.15-.18.28s.12.22.25.22c4.11.03,7.58-1.85,9.63-5.57.27,2.87.27,4.69-.64,7.72-.04.12.02.24.12.3.11.05.24.03.32-.07,7.36-9.39,3.84-25.62-1.98-32.36,5.53,3.98,10.42,12.63,10.34,24.39,0,.12.08.23.21.25.12.02.24-.04.28-.15,4.11-10.25,1.93-29.25-9.28-39.85,2.88-.4,5.87-.35,9.12.69.12.04.24-.01.3-.12.06-.11.04-.24-.06-.32-4.09-3.46-9.81-4.54-15.27-4.54,4.7,5.5,3.14,16.55-4.35,16.55-5.35,0-7.78-8.3-3.65-12.78.08-.09.09-.21.03-.31-.06-.1-.19-.14-.3-.1-4.78,1.66-9.95,5.79-9.95,11.02S17.66,1.66,24.65,1.32C15.83,3.82,6.6,1.05,1.77-4.94c-.07-.09-.2-.12-.31-.07-.11.05-.16.17-.13.29,2.79,10.71,11.97,15.2,23.44,13.71C15.49,12.75,1.52,9.47-4.66,1.68c-.07-.09-.2-.12-.31-.07-.11.05-.16.17-.14.28C-3.73,8.51-.24,13.45,5.52,15.41Z" fill="#9ddcf9" opacity=".4"/>
        </g>
      </g>
    </pattern>
  </defs>
  <path d="M38.64.71C23.64-5.84-5.58,34.75.93,54.19c4.76,14.21,30.94,24.05,44.78,6.08,14.6-18.97,4.39-54.56-7.07-59.56Z" fill="url(#Jive)"/>
  <g>
    <path d="M44.72,22.74l-6.71,30.64h-3.26l-4.89-22.39c-.1-.48-.18-.99-.25-1.51s-.11-1.06-.13-1.61h-.07c-.03.53-.09,1.05-.16,1.56-.07.51-.16,1.02-.27,1.52l-4.92,22.44h-3.23l-6.96-30.64h3.07l5.05,23.5c.11.48.2.98.27,1.5.07.51.11,1.04.13,1.58h.08c.03-.38.09-.83.17-1.35.08-.51.2-1.09.34-1.73l5.25-23.5h2.67l5.04,23.68c.09.4.17.84.23,1.31.07.48.12.99.17,1.55h.07c.02-.37.07-.8.15-1.29.08-.49.18-1.04.3-1.66l4.86-23.59h3.02Z"/>
    <path d="M60.27,43.23h-12c.04,2.46.55,4.36,1.52,5.69.97,1.33,2.32,2,4.07,2,.76,0,1.53-.15,2.29-.44.77-.29,1.53-.76,2.28-1.4l1.26,2.5c-.96.8-1.92,1.38-2.88,1.75-.96.37-2.02.56-3.17.56-2.56,0-4.56-.98-6-2.95-1.44-1.97-2.16-4.71-2.17-8.23-.01-3.52.71-6.35,2.16-8.5,1.45-2.15,3.34-3.23,5.66-3.23s3.92.93,5.15,2.79c1.22,1.86,1.83,4.43,1.83,7.72v1.73ZM57.48,40.36c-.01-2.02-.39-3.6-1.14-4.73-.75-1.13-1.78-1.7-3.1-1.7s-2.39.58-3.29,1.74-1.45,2.72-1.65,4.69h9.18Z"/>
    <path d="M67.16,50.56h-.07v2.82h-2.72V20.98h2.72v14.36h.07c.67-1.45,1.5-2.54,2.48-3.27.98-.73,2.11-1.09,3.39-1.09,2.18,0,3.88.98,5.11,2.94,1.23,1.96,1.85,4.58,1.85,7.87,0,3.66-.69,6.59-2.07,8.79-1.38,2.2-3.27,3.3-5.67,3.3-1.12,0-2.1-.28-2.95-.83-.85-.56-1.56-1.39-2.14-2.5ZM67.1,41.39v3.06c0,1.81.46,3.34,1.37,4.6.91,1.26,2.07,1.89,3.47,1.89,1.65,0,2.94-.81,3.87-2.44.93-1.62,1.4-3.88,1.4-6.77,0-2.44-.44-4.34-1.31-5.73-.87-1.38-2.06-2.07-3.55-2.07-1.58,0-2.85.71-3.81,2.13-.96,1.42-1.44,3.19-1.44,5.33Z"/>
    <path d="M87.11,50.56h-.07v2.82h-2.72V20.98h2.72v14.36h.07c.67-1.45,1.5-2.54,2.48-3.27s2.11-1.09,3.39-1.09c2.18,0,3.88.98,5.11,2.94,1.23,1.96,1.85,4.58,1.85,7.87,0,3.66-.69,6.59-2.07,8.79-1.38,2.2-3.27,3.3-5.67,3.3-1.12,0-2.1-.28-2.95-.83-.85-.56-1.56-1.39-2.14-2.5ZM87.05,41.39v3.06c0,1.81.46,3.34,1.37,4.6.91,1.26,2.07,1.89,3.47,1.89,1.65,0,2.94-.81,3.87-2.44.93-1.62,1.4-3.88,1.4-6.77,0-2.44-.44-4.34-1.31-5.73-.87-1.38-2.06-2.07-3.55-2.07-1.58,0-2.85.71-3.81,2.13-.96,1.42-1.44,3.19-1.44,5.33Z"/>
    <path d="M102.69,51.73l1.29-2.69c.74.63,1.46,1.1,2.17,1.42.71.32,1.47.48,2.29.48,1.16,0,2.04-.28,2.64-.83.6-.56.9-1.39.9-2.5,0-.9-.27-1.66-.8-2.28s-1.37-1.11-2.51-1.49c-2.12-.7-3.57-1.58-4.36-2.64-.78-1.06-1.18-2.37-1.18-3.92,0-1.79.52-3.29,1.57-4.5,1.05-1.2,2.51-1.81,4.39-1.81.91,0,1.77.15,2.59.45.82.3,1.65.81,2.5,1.54l-1.21,2.65c-.77-.63-1.47-1.06-2.08-1.31-.61-.25-1.23-.37-1.87-.37-1.09,0-1.93.26-2.5.78s-.86,1.27-.86,2.25.29,1.72.89,2.22c.59.5,1.54.97,2.86,1.41,1.72.6,3.01,1.44,3.87,2.51.86,1.08,1.28,2.48,1.28,4.22,0,2.02-.55,3.62-1.67,4.8-1.11,1.18-2.63,1.76-4.56,1.76-1.04,0-2.04-.19-2.99-.56-.96-.37-1.84-.9-2.66-1.6Z"/>
    <path d="M132.77,53.38h-2.72v-12.61c0-2.28-.33-3.99-.99-5.13-.66-1.14-1.64-1.71-2.96-1.71s-2.44.66-3.35,1.98c-.91,1.32-1.36,3.01-1.36,5.07v12.39h-2.72V20.98h2.72v14.15h.07c.65-1.38,1.44-2.42,2.37-3.11.93-.69,1.99-1.04,3.2-1.04,1.91,0,3.35.74,4.3,2.22.96,1.48,1.43,3.71,1.43,6.69v13.48Z"/>
    <path d="M144.98,53.89c-2.51,0-4.51-1.02-6.01-3.07-1.5-2.04-2.25-4.75-2.25-8.13,0-3.66.77-6.52,2.32-8.59,1.55-2.06,3.66-3.1,6.33-3.12,2.53-.01,4.5.99,5.92,3.01,1.42,2.02,2.13,4.81,2.13,8.35s-.77,6.3-2.29,8.4c-1.53,2.09-3.58,3.14-6.16,3.14ZM145.18,50.94c1.76,0,3.11-.74,4.05-2.21.94-1.47,1.42-3.56,1.42-6.25s-.47-4.86-1.42-6.34c-.95-1.47-2.3-2.21-4.04-2.21s-3.13.77-4.14,2.31c-1.02,1.54-1.52,3.65-1.52,6.33s.51,4.64,1.54,6.13c1.03,1.5,2.4,2.24,4.13,2.24Z"/>
    <path d="M160.56,50.21h-.07v13.23h-2.72v-31.95h2.72v3.85h.07c.67-1.45,1.5-2.54,2.48-3.27.98-.73,2.11-1.09,3.39-1.09,2.19,0,3.89.98,5.12,2.94,1.23,1.96,1.84,4.58,1.84,7.87,0,3.66-.69,6.59-2.07,8.79-1.38,2.2-3.27,3.3-5.67,3.3-1.09,0-2.07-.31-2.92-.92-.85-.61-1.57-1.53-2.17-2.76ZM160.49,41.39v3.06c0,1.81.46,3.34,1.37,4.6.91,1.26,2.07,1.89,3.47,1.89,1.65,0,2.94-.81,3.87-2.44.93-1.62,1.4-3.88,1.4-6.77,0-2.44-.44-4.34-1.31-5.73-.87-1.38-2.05-2.07-3.55-2.07-1.58,0-2.85.71-3.81,2.13s-1.44,3.19-1.44,5.33Z"/>
  </g>
</svg>